<svg width="250" height="250" viewBox="0 0 250 250" fill="none" xmlns="http://www.w3.org/2000/svg">
<path fill-rule="evenodd" clip-rule="evenodd" d="M118.511 26.7747L44.4732 69.9362C40.465 72.2729 38 76.5631 38 81.2027V168.797C38 173.437 40.465 177.727 44.4732 180.064L118.511 223.225C122.584 225.599 127.621 225.591 131.685 223.203L205.102 180.071C209.088 177.729 211.537 173.45 211.537 168.827V81.1734C211.537 76.5495 209.088 72.2714 205.102 69.9292L131.685 26.7969C127.621 24.409 122.584 24.4005 118.511 26.7747ZM118.382 64.8649L77.7861 88.5308C73.7779 90.8674 71.3129 95.1576 71.3129 99.7972V148.008C71.3129 152.647 73.7778 156.938 77.7861 159.274L118.382 182.94C122.455 185.314 127.491 185.306 131.556 182.918L171.789 159.281C175.776 156.939 178.224 152.661 178.224 148.037V99.7679C178.224 95.1441 175.776 90.8659 171.789 88.5237L131.556 64.8872C127.491 62.4993 122.455 62.4908 118.382 64.8649Z" fill="#FF6600"/>
<path fill-rule="evenodd" clip-rule="evenodd" d="M176.44 154.622C177.589 152.657 178.224 150.392 178.224 148.037V93.9269L210.217 75.4559C209.11 73.1879 207.351 71.2505 205.102 69.9292L131.685 26.7969C127.621 24.409 122.584 24.4005 118.511 26.7747L44.4732 69.9362C42.2139 71.2533 40.4449 73.1912 39.3313 75.4624L71.313 93.927L176.44 154.622Z" fill="#4D4D4D"/>
<path fill-rule="evenodd" clip-rule="evenodd" d="M124.769 25.0037C122.604 25.0552 120.448 25.6454 118.511 26.7746L44.4732 69.9362C42.2139 71.2533 40.4449 73.1911 39.3313 75.4623L71.313 93.927L71.313 148.008C71.313 150.371 71.9527 152.644 73.1103 154.614L124.769 124.789V25.0037Z" fill="#38383A"/>
</svg>
