<svg width="20" height="20" viewBox="0 0 20 20" fill="none" xmlns="http://www.w3.org/2000/svg">
<path fill-rule="evenodd" clip-rule="evenodd" d="M9.05113 0.177466L1.64732 4.49362C1.2465 4.72729 1 5.15631 1 5.62027V14.3797C1 14.8437 1.2465 15.2727 1.64732 15.5064L9.05113 19.8225C9.45838 20.0599 9.96206 20.0591 10.3685 19.8203L17.7102 15.5071C18.1088 15.2729 18.3537 14.845 18.3537 14.3827V5.61734C18.3537 5.15495 18.1088 4.72714 17.7102 4.49292L10.3685 0.179692C9.96206 -0.0590985 9.45838 -0.0599493 9.05113 0.177466ZM9.03822 3.98649L4.97861 6.35308C4.57779 6.58674 4.33129 7.01576 4.33129 7.47972V12.3008C4.33129 12.7647 4.57778 13.1938 4.97861 13.4274L9.03822 15.794C9.44547 16.0314 9.94915 16.0306 10.3556 15.7918L14.3789 13.4281C14.7776 13.1939 15.0224 12.7661 15.0224 12.3037V7.47679C15.0224 7.01441 14.7776 6.58659 14.3789 6.35237L10.3556 3.98872C9.94915 3.74993 9.44547 3.74908 9.03822 3.98649Z" fill="#FF6600"/>
<path fill-rule="evenodd" clip-rule="evenodd" d="M14.8434 12.9622C14.9584 12.7657 15.0219 12.5392 15.0219 12.3037V6.89269L18.2211 5.04559C18.1105 4.81879 17.9345 4.62505 17.7096 4.49292L10.368 0.179692C9.96153 -0.0590985 9.45785 -0.0599493 9.05059 0.177466L1.64678 4.49362C1.42085 4.62533 1.24395 4.81912 1.13259 5.04624L4.33076 6.8927L14.8434 12.9622Z" fill="#4D4D4D"/>
<path fill-rule="evenodd" clip-rule="evenodd" d="M9.67631 0.000365523C9.45982 0.00551863 9.2443 0.0645391 9.05059 0.177462L1.64678 4.49362C1.42085 4.62533 1.24395 4.81911 1.13259 5.04623L4.33076 6.89269L4.33076 12.3008C4.33076 12.5371 4.39473 12.7644 4.51049 12.9614L9.67631 9.97894V0.000365523Z" fill="#38383A"/>
</svg>
